<svg xmlns="http://www.w3.org/2000/svg" width="512" height="512" viewBox="0 0 512 512" version="1.1">
	<path d="M 276.500 91.866 C 271.953 93.936, 266.008 100.102, 263.154 105.705 C 258.936 113.985, 255.030 133.038, 254.995 145.500 C 254.959 158.146, 254.869 158.308, 243.591 165.985 C 231.591 174.153, 224.025 180.572, 217.946 187.744 C 200.910 207.840, 198.201 233.596, 211.093 252.902 C 217.207 262.057, 229.257 270.979, 240.379 274.585 C 243.195 275.499, 245.885 276.598, 246.356 277.028 C 247.344 277.933, 243.830 293.707, 240.888 301.570 C 238.487 307.987, 234.145 312.013, 229.673 311.968 C 225.887 311.930, 223.426 310.250, 222.118 306.810 C 221.337 304.756, 219.933 303.975, 214.623 302.641 C 205.336 300.309, 205.710 300.099, 206.173 307.383 C 206.695 315.575, 209.990 320.807, 217.251 324.971 C 221.726 327.537, 223.533 327.979, 229.500 327.969 C 246.835 327.938, 255.289 317.553, 261.234 288.985 L 263.624 277.500 268.062 276.184 C 285.506 271.013, 295.887 259.799, 299.045 242.713 C 301.940 227.055, 293.251 211.099, 278.003 204.071 L 271 200.843 271.030 184.172 L 271.059 167.500 278.621 162.500 C 298.483 149.367, 311.647 127.772, 309.406 112 C 308.578 106.177, 304.382 98.393, 300.457 95.399 C 293.463 90.065, 283.637 88.615, 276.500 91.866 M 282.335 107.182 C 277.953 109.303, 273.123 124.062, 271.512 140.250 C 271.024 145.158, 271.164 147, 272.024 147 C 272.675 147, 276.305 143.902, 280.091 140.116 C 291.445 128.762, 296.307 114.927, 290.961 109.189 C 289.840 107.985, 288.526 107, 288.043 107 C 287.559 107, 286.564 106.805, 285.832 106.567 C 285.099 106.329, 283.526 106.606, 282.335 107.182 M 244.500 185.355 C 229.804 196.996, 223.384 205.434, 220.419 217.008 C 217.302 229.177, 220.119 240.332, 228.301 248.220 C 233.581 253.309, 242.297 258.709, 246.631 259.576 C 250.075 260.265, 250.218 259.939, 251.483 248.500 L 252.036 243.500 247.286 240.500 C 235.162 232.843, 235.071 216.976, 247.093 206.752 C 249.517 204.691, 252.314 202.302, 253.309 201.443 C 254.840 200.122, 255.088 198.470, 254.923 190.691 C 254.728 181.492, 254.347 178.992, 253.143 179.009 C 252.789 179.014, 248.900 181.870, 244.500 185.355 M 269.611 228.750 C 269.247 234.113, 268.460 242.912, 267.863 248.305 C 267.265 253.697, 267.010 258.343, 267.295 258.628 C 268.135 259.469, 273.282 256.408, 276.191 253.339 C 285.169 243.866, 285.066 229.282, 275.967 221.626 C 270.867 217.334, 270.348 217.916, 269.611 228.750 M 63.684 365.399 C 56.684 367.987, 52.728 373.404, 52.823 380.272 C 52.919 387.236, 59.555 393.899, 69.500 397.017 C 81.599 400.810, 85.927 406.073, 81 411 C 77.902 414.098, 68.739 413.830, 65.455 410.545 C 64.105 409.195, 63 407.170, 63 406.045 C 63 404.207, 62.379 404, 56.869 404 L 50.738 404 51.323 407.606 C 52.542 415.115, 58.801 420.340, 68.806 422.201 C 84.320 425.086, 96.914 416.014, 94.590 403.626 C 93.314 396.824, 87.514 392.134, 75.102 387.863 C 66.404 384.870, 64.834 383.502, 65.193 379.225 C 65.462 376.023, 65.968 375.394, 69.283 374.137 C 74.968 371.983, 80.456 373.854, 82.145 378.523 C 83.366 381.900, 83.555 382, 88.732 382 C 95.215 382, 95.910 380.847, 93.167 374.646 C 90.101 367.713, 84.628 364.567, 75.073 364.244 C 70.407 364.086, 66.035 364.530, 63.684 365.399 M 103 393 L 103 422 109 422 L 115 422 115 412.122 L 115 402.245 123.764 401.826 C 134.212 401.326, 140.299 398.805, 143.900 393.484 C 149.230 385.609, 147.037 373.700, 139.315 368.590 C 134.296 365.268, 127.262 364, 113.864 364 L 103 364 103 393 M 166.907 366.326 C 161.682 369.084, 156.542 375.440, 154.806 381.292 C 152.716 388.333, 153.290 401.635, 155.947 407.727 C 160.913 419.114, 171.729 424.722, 183.602 422.065 C 193.643 419.817, 199.994 412.058, 201.983 399.605 C 204.478 383.987, 198.496 370.048, 187.282 365.348 C 182.009 363.139, 172.040 363.617, 166.907 366.326 M 204.667 364.667 C 204.300 365.033, 204 367.283, 204 369.667 L 204 374 213 374 L 222 374 222 398 L 222 422 227.500 422 L 233 422 233 398 L 233 374 242 374 L 251 374 251 369 L 251 364 228.167 364 C 215.608 364, 205.033 364.300, 204.667 364.667 M 259 393 L 259 422 264.500 422 L 270 422 270 393 L 270 364 264.500 364 L 259 364 259 393 M 281.688 364.645 C 281.310 365.024, 281 378.083, 281 393.667 L 281 422 287 422 L 293 422 293 410.500 L 293 399 304.500 399 L 316 399 316 394 L 316 389 304.500 389 L 293 389 293 381.500 L 293 374 306.055 374 L 319.110 374 318.805 369.250 L 318.500 364.500 300.438 364.228 C 290.505 364.079, 282.067 364.266, 281.688 364.645 M 326 392.874 L 326 422 332 422 L 338 422 338 411.500 L 338 401 342.446 401 L 346.891 401 352.523 411.500 L 358.155 422 364.600 422 L 371.045 422 364.783 410.137 L 358.521 398.274 361.783 395.529 C 363.577 394.019, 365.555 391.831, 366.179 390.666 C 369.560 384.347, 368.726 375.341, 364.318 370.587 C 359.877 365.798, 355.813 364.721, 340.250 364.213 L 326 363.748 326 392.874 M 378 393 L 378 422 397 422 L 416 422 416 417 L 416 412 402.500 412 L 389 412 389 404.500 L 389 397 400.500 397 L 412 397 412 392.533 L 412 388.066 400.750 387.783 L 389.500 387.500 389.204 380.750 L 388.909 374 402.454 374 L 416 374 416 369 L 416 364 397 364 L 378 364 378 393 M 423.688 364.645 C 423.310 365.024, 423 378.083, 423 393.667 L 423 422 442.555 422 L 462.110 422 461.805 417.250 L 461.500 412.500 448.250 412.221 L 435 411.942 435 404.471 L 435 397 446.500 397 L 458 397 458 392.500 L 458 388 446.500 388 L 435 388 435 381 L 435 374 448.555 374 L 462.110 374 461.805 369.250 L 461.500 364.500 442.938 364.229 C 432.729 364.079, 424.066 364.267, 423.688 364.645 M 115 382.891 L 115 392 121.453 392 C 125.002 392, 129.022 391.492, 130.385 390.870 C 135.371 388.598, 136.211 380.311, 131.855 376.369 C 130.373 375.027, 127.818 374.429, 122.412 374.156 L 115 373.781 115 382.891 M 171.353 375.465 C 167.519 378.150, 166 383.109, 166 392.933 C 166 406.587, 168.950 411.793, 177.209 412.716 C 180.624 413.097, 182.087 412.732, 184.371 410.930 C 188.655 407.549, 190 403.265, 190 392.992 C 190 383.229, 187.984 377.132, 184.062 375.033 C 181.234 373.519, 173.769 373.773, 171.353 375.465 M 338 382.387 L 338 391 344.811 391 C 354.165 391, 356.815 388.522, 356.036 380.500 C 355.640 376.419, 352.455 374.591, 345.005 374.170 L 338 373.774 338 382.387" stroke="none" fill="black" fill-rule="evenodd"/>
</svg>