<svg width="45" height="45" viewBox="0 0 45 45" fill="none" xmlns="http://www.w3.org/2000/svg">
<g clip-path="url(#clip0)">
<path d="M35.1562 45H9.84375C7.51875 45 5.625 43.1081 5.625 40.7812V21.0938C5.625 18.7669 7.51875 16.875 9.84375 16.875H35.1562C37.4813 16.875 39.375 18.7669 39.375 21.0938V40.7812C39.375 43.1081 37.4813 45 35.1562 45ZM9.84375 19.6875C9.06938 19.6875 8.4375 20.3175 8.4375 21.0938V40.7812C8.4375 41.5575 9.06938 42.1875 9.84375 42.1875H35.1562C35.9306 42.1875 36.5625 41.5575 36.5625 40.7812V21.0938C36.5625 20.3175 35.9306 19.6875 35.1562 19.6875H9.84375Z" fill="#15202B"/>
<path d="M32.3438 19.6875C31.5675 19.6875 30.9375 19.0575 30.9375 18.2812V11.25C30.9375 6.59812 27.1519 2.8125 22.5 2.8125C17.8481 2.8125 14.0625 6.59812 14.0625 11.25V18.2812C14.0625 19.0575 13.4325 19.6875 12.6562 19.6875C11.88 19.6875 11.25 19.0575 11.25 18.2812V11.25C11.25 5.04562 16.2956 0 22.5 0C28.7044 0 33.75 5.04562 33.75 11.25V18.2812C33.75 19.0575 33.12 19.6875 32.3438 19.6875Z" fill="#15202B"/>
<path d="M22.5 31.875C20.4319 31.875 18.75 30.1931 18.75 28.125C18.75 26.0569 20.4319 24.375 22.5 24.375C24.5681 24.375 26.25 26.0569 26.25 28.125C26.25 30.1931 24.5681 31.875 22.5 31.875ZM22.5 27.1875C21.9844 27.1875 21.5625 27.6075 21.5625 28.125C21.5625 28.6425 21.9844 29.0625 22.5 29.0625C23.0156 29.0625 23.4375 28.6425 23.4375 28.125C23.4375 27.6075 23.0156 27.1875 22.5 27.1875Z" fill="#15202B"/>
<path d="M22.5 37.5C21.7237 37.5 21.0938 36.87 21.0938 36.0937V30.9375C21.0938 30.1612 21.7237 29.5312 22.5 29.5312C23.2763 29.5312 23.9062 30.1612 23.9062 30.9375V36.0937C23.9062 36.87 23.2763 37.5 22.5 37.5Z" fill="#15202B"/>
</g>
<defs>
<clipPath id="clip0">
<rect width="45" height="45" fill="white"/>
</clipPath>
</defs>
</svg>
