<svg width="45" height="45" viewBox="0 0 45 45" fill="none" xmlns="http://www.w3.org/2000/svg">
<path d="M42.2861 23.4954C41.5637 23.4082 40.9069 23.9253 40.8208 24.6483C39.7373 33.7263 32.0058 40.5724 22.8368 40.5724C18.6195 40.5724 14.5134 39.0934 11.2749 36.4083C8.4219 34.0428 6.36131 30.851 5.37942 27.3169L6.95456 28.1821C7.59279 28.5326 8.39409 28.2995 8.74462 27.6612C9.09515 27.023 8.86204 26.2214 8.22381 25.8708L4.17816 23.6489C3.54062 23.2987 2.73966 23.5311 2.38878 24.1683L0.163744 28.2088C-0.18747 28.8467 0.0449564 29.6484 0.682497 29.9996C1.50509 30.3765 2.14469 30.0295 2.47324 29.4808L2.99062 28.5412C4.16854 32.3846 6.46499 35.8453 9.59193 38.438C13.3025 41.5145 18.0063 43.2087 22.8364 43.2087C33.3402 43.2087 42.1971 35.3639 43.4386 24.9604C43.5251 24.2377 43.0087 23.5816 42.2861 23.4954Z" fill="#15202B"/>
<path d="M44.2025 13.0165C43.5344 12.7285 42.7581 13.0364 42.4701 13.7049L42.055 14.6675C40.7013 11.3631 38.4921 8.41674 35.6618 6.19102C31.9745 3.29136 27.5396 1.75879 22.8368 1.75879C18.0489 1.75879 13.3777 3.42628 9.68327 6.45468C6.03964 9.44086 3.50046 13.6087 2.53368 18.19C2.38331 18.9023 2.83923 19.6017 3.55162 19.7521C4.43188 19.7809 4.98257 19.3548 5.11337 18.7345C5.9569 14.7379 8.17336 11.1011 11.3545 8.49365C14.579 5.85079 18.6569 4.39547 22.8368 4.39547C26.9425 4.39547 30.8141 5.73303 34.032 8.26328C36.6409 10.3149 38.6452 13.0663 39.8035 16.1452L38.1347 15.4273C37.4662 15.1399 36.6903 15.4486 36.4026 16.1174C36.1149 16.7861 36.4239 17.5617 37.0927 17.8494L41.3334 19.6734C42.0952 19.9086 42.7403 19.7775 43.0651 18.9844L44.8912 14.7489C45.1796 14.0805 44.8713 13.3049 44.2025 13.0165Z" fill="#15202B"/>
<path d="M14.8127 25.4217C14.0849 25.4217 13.4944 26.0118 13.4944 26.74V27.2684C13.4944 30.0379 15.75 32.2911 18.5223 32.2911H19.0702V34.6377C19.0702 35.3659 19.6607 35.956 20.3885 35.956C21.1167 35.956 21.7069 35.3659 21.7069 34.6377V32.2911H23.292V34.6377C23.292 35.3659 23.8821 35.956 24.6103 35.956C25.3382 35.956 25.9287 35.3659 25.9287 34.6377V32.2911H26.4766C29.2489 32.2911 31.5045 30.0379 31.5045 27.2684V26.5041C31.5045 24.5308 30.1758 22.7819 28.2735 22.2508L25.9283 21.5961V15.1249H26.4766C27.7949 15.1249 28.8678 16.1953 28.8678 17.5113V17.7235C28.8678 18.4513 29.458 19.0418 30.1858 19.0418C30.914 19.0418 31.5041 18.4513 31.5041 17.7235V17.5113C31.5041 14.7414 29.2489 12.4882 26.4766 12.4882H25.9283V10.3291C25.9283 9.6009 25.3382 9.01074 24.6103 9.01074C23.8821 9.01074 23.292 9.6009 23.292 10.3291V12.4882H21.7069V10.3291C21.7069 9.6009 21.1167 9.01074 20.3885 9.01074C19.6604 9.01074 19.0702 9.6009 19.0702 10.3291V12.4882H18.5219C15.75 12.4882 13.4944 14.7414 13.4944 17.5113C13.4944 19.4843 14.823 21.2332 16.725 21.7643L19.0702 22.419V29.6544H18.5223C17.2039 29.6544 16.1311 28.584 16.1311 27.2684V26.74C16.1311 26.0118 15.5409 25.4217 14.8127 25.4217ZM27.5649 24.7903C28.3319 25.0045 28.8678 25.709 28.8678 26.5038V27.2684C28.8678 28.584 27.7953 29.6544 26.4769 29.6544H25.9287V24.3333L27.5649 24.7903ZM23.292 15.1249V20.86L21.7069 20.4175V15.1249H23.292ZM17.434 19.2248C16.667 19.0106 16.1311 18.3061 16.1311 17.5109C16.1311 16.1953 17.2039 15.1249 18.5223 15.1249H19.0702V19.6814L17.434 19.2248ZM21.7069 23.1551L23.292 23.5973V29.6544H21.7069V23.1551Z" fill="#15202B"/>
</svg>
